<svg xmlns="http://www.w3.org/2000/svg" width="153" height="32" viewBox="0 0 153 32" fill="none">
  <rect x="110.778" y="14.7832" width="8.85472" height="1.37283" fill="#B6B6B6"/>
  <rect x="110.778" y="13.8398" width="8.85472" height="0.634934" fill="#B6B6B6"/>
  <path d="M122.29 3.88385C121.996 3.88385 121.758 4.12207 121.758 4.41583C121.758 4.63412 121.889 4.82119 122.078 4.90323L119.109 10.442H118.449L119.325 2.70172C119.657 2.69656 119.925 2.42663 119.925 2.09357C119.925 1.75705 119.652 1.48438 119.315 1.48438C118.979 1.48438 118.706 1.75705 118.706 2.09357C118.706 2.38513 118.911 2.62812 119.185 2.68799L116.853 10.3906H116.201L115.169 1.49912C115.534 1.44578 115.815 1.13465 115.815 0.75507C115.815 0.33805 115.477 0 115.06 0C114.643 0 114.305 0.33804 114.305 0.75507C114.305 1.1391 114.592 1.45261 114.963 1.50037L114.056 10.3906H113.404L110.996 2.66346C111.229 2.5778 111.396 2.35609 111.396 2.09357C111.396 1.75705 111.123 1.48438 110.787 1.48438C110.45 1.48438 110.178 1.75705 110.178 2.09357C110.178 2.43009 110.45 2.70276 110.787 2.70276C110.83 2.70276 110.872 2.69797 110.912 2.68952L111.756 10.545H111.087L107.763 4.89341C107.94 4.80729 108.064 4.62675 108.064 4.41584C108.064 4.12208 107.826 3.88386 107.532 3.88386C107.238 3.88386 107 4.12208 107 4.41584C107 4.70966 107.238 4.94782 107.532 4.94782C107.559 4.94782 107.585 4.94388 107.612 4.93976L110.778 13.4279H119.633L122.211 4.93991C122.237 4.94388 122.263 4.94781 122.29 4.94781C122.584 4.94781 122.822 4.70965 122.822 4.41583C122.822 4.12207 122.584 3.88385 122.29 3.88385H122.29Z" fill="#B6B6B6"/>
  <path fill-rule="evenodd" clip-rule="evenodd" d="M16.0029 18.4197V18.774C16.4617 18.7974 16.8059 18.8447 17.0357 18.9157C17.2651 18.9864 17.4171 19.1283 17.4914 19.3407C17.5654 19.5535 17.6027 19.8722 17.6027 20.2974V29.0837C17.6027 29.5205 17.5654 29.8424 17.4914 30.049C17.4171 30.2556 17.2616 30.3973 17.0257 30.4743C16.7893 30.5509 16.4484 30.5952 16.0029 30.6071V30.9613C16.3133 30.9495 16.715 30.9376 17.2078 30.926C17.7005 30.9141 18.2305 30.9081 18.7976 30.9081C19.3106 30.9081 19.8133 30.9141 20.3064 30.926C20.7991 30.9376 21.2075 30.9495 21.5316 30.9613V30.6071C21.0861 30.5952 20.7483 30.5509 20.5189 30.4743C20.2892 30.3973 20.1343 30.2556 20.0532 30.049C19.9722 29.8424 19.9316 29.5205 19.9316 29.0837V20.2974C19.9316 19.8722 19.9723 19.5535 20.0532 19.3407C20.1343 19.1283 20.2892 18.9864 20.5189 18.9157C20.7483 18.8447 21.0861 18.7974 21.5316 18.774V18.4197C21.2075 18.4432 20.7991 18.4579 20.3064 18.464C19.8133 18.4698 19.3106 18.4728 18.7976 18.4728C18.2305 18.4728 17.7005 18.4698 17.2078 18.464C16.715 18.4579 16.3133 18.4432 16.0029 18.4197ZM19.0205 24.4783V24.8326H27.0199V24.4783H19.0205ZM24.5086 18.4197V18.774C24.9674 18.7974 25.3116 18.8447 25.5414 18.9157C25.7708 18.9864 25.9227 19.1283 25.9971 19.3407C26.071 19.5535 26.1084 19.8722 26.1084 20.2974V29.0837C26.1084 29.5205 26.071 29.8424 25.9971 30.049C25.9227 30.2556 25.7673 30.3973 25.5313 30.4743C25.2948 30.5509 24.954 30.5952 24.5086 30.6071V30.9613C24.8458 30.9495 25.268 30.9376 25.7742 30.926C26.2805 30.9141 26.7834 30.9081 27.2831 30.9081C27.8501 30.9081 28.3764 30.9141 28.8625 30.926C29.3486 30.9376 29.7401 30.9495 30.0372 30.9613V30.6071C29.5916 30.5952 29.254 30.5509 29.0246 30.4743C28.795 30.3973 28.6397 30.2556 28.5588 30.049C28.4779 29.8424 28.4372 29.5205 28.4372 29.0837V20.2974C28.4372 19.8722 28.4779 19.5535 28.5588 19.3407C28.6397 19.1283 28.795 18.9864 29.0246 18.9157C29.254 18.8447 29.5916 18.7974 30.0372 18.774V18.4197C29.7401 18.4432 29.3486 18.4579 28.8625 18.464C28.3764 18.4698 27.8501 18.4728 27.2831 18.4728C26.7834 18.4728 26.2805 18.4698 25.7742 18.464C25.268 18.4579 24.8458 18.4432 24.5086 18.4197Z" fill="#B6B6B6"/>
  <path d="M38.4713 18.4197V18.7738C38.0118 18.7857 37.6635 18.83 37.4269 18.9067C37.1899 18.9837 37.0299 19.1254 36.9462 19.332C36.8627 19.5386 36.821 19.8605 36.821 20.2972V29.0836C36.821 29.5088 36.8627 29.8275 36.9462 30.0403C37.0299 30.2527 37.1899 30.3946 37.4269 30.4653C37.6635 30.5363 38.0118 30.5836 38.4713 30.607V30.9613C38.137 30.9378 37.7157 30.9231 37.2074 30.917C36.6988 30.9112 36.1802 30.9081 35.651 30.9081C35.066 30.9081 34.5194 30.9112 34.011 30.917C33.5026 30.9231 33.0882 30.9378 32.7681 30.9613V30.607C33.2414 30.5836 33.5964 30.5363 33.8335 30.4653C34.0701 30.3946 34.2269 30.2527 34.3036 30.0403C34.3799 29.8275 34.4184 29.5088 34.4184 29.0836V20.2972C34.4184 19.8605 34.3799 19.5386 34.3036 19.332C34.2269 19.1254 34.0665 18.9837 33.8231 18.9067C33.5793 18.83 33.2278 18.7857 32.7681 18.7738V18.4197C33.0882 18.4315 33.5026 18.4434 34.011 18.455C34.5194 18.4669 35.066 18.4729 35.651 18.4729C36.1802 18.4729 36.6988 18.4669 37.2074 18.455C37.7157 18.4434 38.137 18.4315 38.4713 18.4197Z" fill="#B6B6B6"/>
  <path d="M48.134 18.156C49.0105 18.156 49.7306 18.2715 50.2951 18.5025C50.8595 18.7332 51.3608 19.0026 51.7989 19.3104C52.0645 19.4879 52.2671 19.5088 52.4065 19.3727C52.5458 19.2366 52.642 18.9138 52.6953 18.4048H53.1534C53.1266 18.8548 53.1068 19.3964 53.0936 20.0296C53.0803 20.6631 53.0736 21.5066 53.0736 22.5602H52.6155C52.5224 22.0394 52.4329 21.6133 52.3467 21.2815C52.2601 20.9503 52.1475 20.6661 52.0082 20.4293C51.8686 20.1925 51.6793 19.9616 51.4404 19.7367C51.0552 19.3104 50.584 19.0026 50.0263 18.8131C49.4684 18.6239 48.8776 18.5291 48.2534 18.5291C47.5764 18.5291 46.9787 18.6801 46.4608 18.9818C45.9429 19.2837 45.5079 19.7131 45.1562 20.2693C44.8043 20.826 44.5353 21.4831 44.3494 22.2405C44.1634 22.9985 44.0707 23.8272 44.0707 24.7269C44.0707 25.6501 44.1703 26.4879 44.3694 27.2395C44.5686 27.9915 44.8574 28.6366 45.2359 29.1752C45.6143 29.7141 46.0724 30.1285 46.6102 30.4185C47.148 30.7086 47.7487 30.8536 48.4128 30.8536C48.9571 30.8536 49.5213 30.7557 50.1058 30.5604C50.69 30.365 51.1548 30.0662 51.5002 29.6637C51.8718 29.3086 52.1275 28.9088 52.2671 28.4649C52.4065 28.0209 52.5224 27.4144 52.6155 26.6448H53.0736C53.0736 27.7342 53.0803 28.6131 53.0936 29.2819C53.1068 29.9508 53.1266 30.516 53.1534 30.9777H52.6953C52.642 30.4689 52.5523 30.1494 52.4263 30.0188C52.3 29.8886 52.0908 29.9066 51.7989 30.072C51.3075 30.38 50.7862 30.6492 50.2353 30.8801C49.6841 31.1111 48.977 31.2264 48.114 31.2264C46.7995 31.2264 45.6506 30.9719 44.6682 30.4627C43.6853 29.954 42.922 29.2198 42.3776 28.2607C41.8329 27.3019 41.561 26.1474 41.561 24.7977C41.561 23.472 41.843 22.3115 42.4075 21.3172C42.9717 20.3226 43.7451 19.5473 44.7279 18.9907C45.7104 18.4344 46.8458 18.156 48.134 18.156L48.134 18.156Z" fill="#B6B6B6"/>
  <path fill-rule="evenodd" clip-rule="evenodd" d="M62.3609 18.4197V18.7738C61.9097 18.7857 61.568 18.83 61.3357 18.9067C61.1031 18.9837 60.9463 19.1254 60.8642 19.332C60.7823 19.5386 60.7412 19.8605 60.7412 20.2972V29.0836C60.7412 29.5088 60.7823 29.8275 60.8642 30.0403C60.9463 30.2527 61.1031 30.3946 61.3357 30.4653C61.568 30.5363 61.9097 30.5836 62.3609 30.607V30.9613C62.0328 30.9378 61.6193 30.9231 61.1205 30.917C60.6214 30.9112 60.1125 30.9081 59.5932 30.9081C59.0192 30.9081 58.4826 30.9112 57.9839 30.917C57.4848 30.9231 57.0783 30.9378 56.7642 30.9613V30.607C57.2286 30.5836 57.5771 30.5363 57.8097 30.4653C58.0419 30.3946 58.1955 30.2527 58.271 30.0403C58.3458 29.8275 58.3836 29.5088 58.3836 29.0836V20.2972C58.3836 19.8605 58.3458 19.5386 58.271 19.332C58.1955 19.1254 58.0384 18.9837 57.7995 18.9067C57.5602 18.83 57.2151 18.7857 56.7642 18.7738V18.4197C57.0783 18.4315 57.4848 18.4434 57.9839 18.455C58.4826 18.4669 59.0192 18.4729 59.5932 18.4729C60.1125 18.4729 60.6214 18.4669 61.1205 18.455C61.6193 18.4434 62.0328 18.4315 62.3609 18.4197ZM69.085 18.4197V18.7738C68.6475 18.8331 68.2137 18.966 67.7831 19.1724C67.3528 19.3793 66.9187 19.7188 66.4815 20.1911L62.5453 24.4424L63.2423 23.3619L68.1625 29.5264C68.3811 29.8099 68.6168 30.0345 68.8698 30.1996C69.1226 30.3651 69.4469 30.5007 69.8436 30.607V30.9613C69.4746 30.9378 69.0303 30.9231 68.511 30.917C67.9915 30.9112 67.5337 30.9082 67.1374 30.9082C66.8915 30.9082 66.5872 30.9112 66.2252 30.917C65.8628 30.9231 65.4084 30.9378 64.8618 30.9613V30.607C65.3674 30.5836 65.6784 30.5126 65.7947 30.3946C65.9107 30.2765 65.8595 30.0818 65.641 29.8099L62.6684 25.8241C62.4224 25.4937 62.2035 25.2428 62.0122 25.0713C61.8208 24.9004 61.6228 24.7878 61.4178 24.7347C61.2127 24.6816 60.9597 24.6492 60.6593 24.6374V24.2653C61.2333 24.2537 61.7285 24.1415 62.1455 23.9287C62.5623 23.7161 62.9555 23.4269 63.3243 23.0609L65.0259 21.2008C65.5042 20.6931 65.8117 20.2591 65.9485 19.8989C66.0849 19.5386 66.051 19.264 65.846 19.075C65.641 18.8862 65.2581 18.7857 64.6978 18.7738V18.4197C65.1213 18.4315 65.5487 18.4434 65.9792 18.455C66.4098 18.4669 66.8435 18.4729 67.2809 18.4729C68.0462 18.4729 68.6476 18.455 69.085 18.4197L69.085 18.4197Z" fill="#B6B6B6"/>
  <path d="M77.8911 18.194C78.5618 18.194 79.0743 18.2652 79.4285 18.4073C79.7827 18.5491 80.093 18.7033 80.3588 18.8688C80.5106 18.9519 80.6339 19.0139 80.7289 19.0552C80.8238 19.0968 80.9155 19.1173 81.0042 19.1173C81.2063 19.1173 81.3457 18.8571 81.4217 18.3362H81.8582C81.8454 18.5491 81.8298 18.8008 81.8107 19.0907C81.7918 19.3809 81.7791 19.7626 81.7728 20.2361C81.7663 20.7095 81.7634 21.3309 81.7634 22.1002H81.3268C81.2889 21.5205 81.1526 20.9581 80.9187 20.4135C80.6843 19.8692 80.3426 19.4253 79.8935 19.0818C79.4443 18.7386 78.8717 18.5669 78.1758 18.5669C77.5304 18.5669 76.9957 18.7475 76.572 19.1084C76.1478 19.4697 75.9361 19.9461 75.9361 20.5378C75.9361 21.0588 76.075 21.4938 76.3537 21.8428C76.6319 22.1921 77.0147 22.5175 77.5019 22.8193C77.9889 23.1213 78.5427 23.4558 79.1628 23.8225C79.7956 24.2015 80.3649 24.5771 80.8712 24.9501C81.377 25.3228 81.7759 25.7342 82.0669 26.184C82.358 26.634 82.5036 27.1783 82.5036 27.8175C82.5036 28.5871 82.3104 29.2232 81.9246 29.7263C81.5385 30.2297 81.023 30.6052 80.3777 30.8538C79.7324 31.1022 79.0235 31.2265 78.2518 31.2265C77.5429 31.2265 76.9801 31.1555 76.5624 31.0135C76.1449 30.8714 75.7903 30.7235 75.4995 30.5696C75.221 30.4041 75.0059 30.321 74.8541 30.321C74.6516 30.321 74.5124 30.5815 74.4366 31.1022H74C74.0252 30.8422 74.0408 30.5371 74.0474 30.188C74.0537 29.8388 74.0599 29.38 74.0664 28.8118C74.0726 28.2436 74.0759 27.5276 74.0759 26.6634H74.5124C74.5629 27.3975 74.7053 28.084 74.9395 28.7231C75.1736 29.3624 75.5341 29.8745 76.0215 30.2589C76.5085 30.6437 77.1571 30.8361 77.9669 30.8361C78.5996 30.8361 79.1628 30.6556 79.6564 30.2943C80.1499 29.9336 80.3967 29.3683 80.3967 28.5987C80.3967 27.877 80.1276 27.2761 79.59 26.7965C79.052 26.3171 78.3467 25.8289 77.4736 25.3317C76.8786 24.9767 76.3218 24.6216 75.8032 24.2664C75.2841 23.9112 74.8699 23.4973 74.5599 23.0235C74.2497 22.5502 74.0949 21.9878 74.0949 21.3367C74.0949 20.6149 74.2753 20.0228 74.6358 19.5612C74.9965 19.0997 75.4645 18.7564 76.0404 18.5315C76.6161 18.3067 77.233 18.194 77.8911 18.194L77.8911 18.194Z" fill="#B6B6B6"/>
  <path d="M98.5589 18.156C99.394 18.156 100.071 18.2715 100.59 18.5025C101.109 18.7332 101.583 19.0026 102.013 19.3104C102.178 19.4289 102.304 19.4879 102.393 19.4879C102.633 19.4879 102.792 19.1269 102.868 18.4048H103.304C103.279 18.8548 103.26 19.3964 103.247 20.0295C103.235 20.6631 103.228 21.5066 103.228 22.5602H102.792C102.703 21.9919 102.586 21.4653 102.44 20.9796C102.295 20.4944 102.045 20.0801 101.691 19.7367C101.349 19.3578 100.903 19.0617 100.353 18.8488C99.8021 18.6355 99.2422 18.5291 98.6727 18.5291C98.0145 18.5291 97.4324 18.6801 96.9266 18.9818C96.4202 19.2837 95.9931 19.7131 95.6452 20.2693C95.297 20.826 95.0314 21.48 94.848 22.2318C94.6645 22.9836 94.5728 23.8094 94.5728 24.7089C94.5728 26.8402 94.924 28.4001 95.6262 29.3885C96.3285 30.3771 97.3884 30.8712 98.8057 30.8712C99.2104 30.8712 99.5617 30.8179 99.8591 30.7113C100.156 30.605 100.394 30.4984 100.571 30.3918C100.786 30.2498 100.925 30.1106 100.988 29.9745C101.052 29.8384 101.083 29.6579 101.083 29.4327V27.7101C101.083 27.2013 101.036 26.8254 100.941 26.5826C100.846 26.34 100.659 26.1742 100.381 26.0854C100.103 25.9964 99.6978 25.9462 99.1661 25.9343V25.5791C99.4066 25.5911 99.6913 25.6 100.02 25.6058C100.349 25.6119 100.694 25.6177 101.055 25.6235C101.416 25.6296 101.741 25.6324 102.032 25.6324C102.488 25.6324 102.902 25.6266 103.276 25.6148C103.649 25.603 103.956 25.5911 104.196 25.5791V25.9343C103.804 25.9584 103.551 26.053 103.437 26.2184C103.323 26.3844 103.266 26.7988 103.266 27.4615V30.9777H102.887C102.874 30.7765 102.826 30.5576 102.744 30.3206C102.662 30.084 102.538 29.9656 102.374 29.9656C102.285 29.9656 102.194 29.9832 102.099 30.0187C102.004 30.0544 101.843 30.143 101.615 30.2851C101.172 30.5693 100.71 30.7974 100.229 30.969C99.7482 31.1403 99.2042 31.2264 98.5968 31.2264C96.547 31.2264 94.965 30.6671 93.8516 29.5481C92.7377 28.4294 92.181 26.8755 92.181 24.8865C92.181 23.5133 92.4565 22.3235 93.0068 21.3173C93.5573 20.311 94.3102 19.5324 95.2656 18.9818C96.2209 18.4315 97.3187 18.1561 98.5588 18.1561L98.5589 18.156Z" fill="#B6B6B6"/>
  <path fill-rule="evenodd" clip-rule="evenodd" d="M115.42 31.2263C116.796 31.2263 118.007 30.9716 119.053 30.4627C120.098 29.9535 120.909 29.2223 121.485 28.2695C122.06 27.3164 122.349 26.159 122.349 24.7976C122.349 23.4715 122.054 22.3115 121.464 21.3171C120.874 20.3224 120.053 19.547 119 18.9906C117.947 18.4341 116.747 18.156 115.399 18.156C114.009 18.156 112.794 18.4105 111.755 18.9197C110.716 19.4284 109.909 20.1626 109.334 21.1217C108.758 22.0805 108.47 23.235 108.47 24.5846C108.47 25.9104 108.768 27.0709 109.365 28.0651C109.962 29.0598 110.779 29.835 111.819 30.3917C112.857 30.948 114.058 31.2263 115.42 31.2263L115.42 31.2263ZM115.335 30.9063C114.465 30.9063 113.707 30.6399 113.061 30.1072C112.415 29.5745 111.917 28.8402 111.566 27.9052C111.215 26.9698 111.039 25.8863 111.039 24.6552C111.039 23.4003 111.236 22.308 111.629 21.3787C112.022 20.4494 112.555 19.7331 113.229 19.2301C113.903 18.7267 114.654 18.4754 115.483 18.4754C116.353 18.4754 117.108 18.7416 117.747 19.2743C118.385 19.8073 118.884 20.5441 119.242 21.4854C119.6 22.4267 119.779 23.5069 119.779 24.7263C119.779 25.9929 119.579 27.0883 119.179 28.0115C118.779 28.9351 118.245 29.6483 117.578 30.1516C116.911 30.6545 116.164 30.9063 115.335 30.9063L115.335 30.9063Z" fill="#B6B6B6"/>
  <path d="M131.706 18.4197V18.7739C131.252 18.7858 130.909 18.8301 130.676 18.9067C130.442 18.9837 130.286 19.1254 130.205 19.332C130.125 19.5386 130.085 19.8605 130.085 20.2973V29.1546C130.085 29.5561 130.122 29.8572 130.195 30.0578C130.269 30.2588 130.415 30.3917 130.636 30.4566C130.856 30.5215 131.173 30.5539 131.586 30.5539H132.887C133.66 30.5539 134.274 30.4271 134.728 30.1731C135.181 29.9194 135.528 29.5325 135.768 29.0129C136.009 28.4932 136.182 27.832 136.289 27.0287H136.749C136.709 27.4068 136.689 27.9028 136.689 28.5169C136.689 28.7532 136.699 29.0986 136.719 29.553C136.739 30.0079 136.776 30.4774 136.829 30.9613C136.149 30.9378 135.381 30.9231 134.528 30.917C133.674 30.9112 132.914 30.9081 132.247 30.9081H130.595C129.908 30.9081 129.175 30.9112 128.394 30.917C127.614 30.9231 126.883 30.9378 126.203 30.9613V30.607C126.657 30.5836 126.997 30.5363 127.224 30.4653C127.45 30.3946 127.601 30.2527 127.674 30.0403C127.747 29.8275 127.784 29.5088 127.784 29.0836V20.2972C127.784 19.8605 127.747 19.5386 127.674 19.332C127.601 19.1254 127.447 18.9837 127.214 18.9067C126.98 18.83 126.643 18.7857 126.203 18.7738V18.4197C126.51 18.4315 126.907 18.4434 127.394 18.455C127.881 18.4669 128.404 18.4729 128.965 18.4729C129.472 18.4729 129.975 18.4669 130.476 18.455C130.976 18.4434 131.386 18.4315 131.706 18.4197V18.4197Z" fill="#B6B6B6"/>
  <path fill-rule="evenodd" clip-rule="evenodd" d="M145.084 30.9613C147.519 30.9613 149.329 30.4327 150.513 29.376C151.698 28.319 152.29 26.8044 152.29 24.8323C152.29 23.545 152 22.4199 151.421 21.4577C150.842 20.4949 150.003 19.7483 148.904 19.2168C147.805 18.6855 146.473 18.4197 144.907 18.4197C144.617 18.4197 144.186 18.4284 143.614 18.4463C143.041 18.464 142.538 18.4728 142.103 18.4728C141.603 18.4728 141.113 18.4698 140.633 18.464C140.152 18.4579 139.761 18.4432 139.458 18.4197V18.774C139.905 18.7974 140.241 18.8447 140.465 18.9157C140.689 18.9864 140.837 19.1283 140.909 19.3407C140.982 19.5535 141.018 19.8722 141.018 20.2974V29.0837C141.018 29.5205 140.982 29.8424 140.909 30.049C140.837 30.2556 140.685 30.3973 140.455 30.4743C140.224 30.5509 139.892 30.5952 139.458 30.6071V30.9613C139.761 30.9495 140.152 30.9347 140.633 30.9171C141.113 30.8994 141.59 30.8964 142.064 30.9081C142.538 30.9199 143.067 30.9318 143.653 30.9438C144.239 30.9553 144.716 30.9613 145.084 30.9613L145.084 30.9613ZM144.749 30.6419C144.143 30.6419 143.748 30.5415 143.564 30.3408C143.38 30.1399 143.288 29.7325 143.288 29.1186V20.2615C143.288 19.6473 143.383 19.2397 143.574 19.0391C143.765 18.8382 144.163 18.7381 144.768 18.7381C146.098 18.7381 147.13 18.9709 147.868 19.4378C148.604 19.904 149.124 20.5862 149.427 21.4838C149.73 22.3811 149.881 23.4734 149.881 24.7608C149.881 26.7449 149.499 28.221 148.736 29.1894C147.973 30.1577 146.644 30.6419 144.749 30.6419L144.749 30.6419Z" fill="#B6B6B6"/>
  <path d="M6.98574 18.156C7.91718 18.156 8.68253 18.2715 9.28249 18.5025C9.88228 18.7332 10.4151 19.0026 10.8807 19.3104C11.163 19.4879 11.3783 19.5088 11.5264 19.3727C11.6745 19.2366 11.7768 18.9138 11.8334 18.4048H12.3203C12.2917 18.8548 12.2707 19.3964 12.2567 20.0296C12.2425 20.6631 12.2357 21.5066 12.2357 22.5602H11.7486C11.6498 22.0394 11.5546 21.6133 11.4629 21.2815C11.3708 20.9503 11.2512 20.6661 11.1031 20.4293C10.9548 20.1925 10.7536 19.9616 10.4997 19.7367C10.0903 19.3104 9.58947 19.0026 8.99677 18.8131C8.40406 18.6239 7.77594 18.5291 7.11263 18.5291C6.39303 18.5291 5.75783 18.6801 5.20743 18.9818C4.65703 19.2837 4.19466 19.7131 3.82089 20.2693C3.44693 20.826 3.16101 21.4831 2.96353 22.2405C2.76582 22.9985 2.66725 23.8272 2.66725 24.7269C2.66725 25.6501 2.77307 26.4879 2.98474 27.2395C3.19641 27.9915 3.50337 28.6366 3.90567 29.1752C4.30775 29.7141 4.79465 30.1285 5.36629 30.4185C5.93773 30.7086 6.57621 30.8536 7.28199 30.8536C7.86054 30.8536 8.46012 30.7557 9.08137 30.5604C9.7022 30.365 10.1962 30.0662 10.5632 29.6637C10.9582 29.3086 11.23 28.9088 11.3783 28.4649C11.5264 28.0209 11.6498 27.4144 11.7486 26.6448H12.2357C12.2357 27.7342 12.2425 28.6131 12.2567 29.2819C12.2707 29.9508 12.2917 30.516 12.3203 30.9777H11.8334C11.7768 30.4689 11.6816 30.1494 11.5475 30.0188C11.4133 29.8886 11.1911 29.9066 10.8807 30.072C10.3584 30.38 9.80438 30.6492 9.21896 30.8801C8.63314 31.1111 7.8818 31.2264 6.96452 31.2264C5.56743 31.2264 4.34643 30.9719 3.30227 30.4627C2.25771 29.954 1.44644 29.2198 0.8679 28.2607C0.28898 27.3019 0 26.1474 0 24.7977C0 23.472 0.2997 22.3115 0.8997 21.3172C1.49926 20.3226 2.32124 19.5473 3.36579 18.9907C4.40996 18.4344 5.61661 18.156 6.98574 18.156V18.156Z" fill="#B6B6B6"/>
</svg>
