<svg width="32" height="32" viewBox="0 0 32 32" fill="none" xmlns="http://www.w3.org/2000/svg">
<style>
  rect:nth-child(1),
  rect:nth-child(2), 
  path {
    fill: #5762D5;
  }

  @media (prefers-color-scheme: dark) {
    rect:nth-child(1),
    rect:nth-child(2), 
    path {
      fill: #C4C5CB;
    }
  }
</style>
<g clip-path="url(#clip0_31940_361012)">
<rect x="7.64062" y="29.2808" width="17.909" height="2.71946" fill="#5762D5"/>
<rect x="7.64062" y="27.4077" width="17.909" height="1.25776" fill="#5762D5"/>
<path d="M30.9241 7.69361C30.33 7.69361 29.8482 8.16551 29.8482 8.74743C29.8482 9.17984 30.1145 9.55041 30.4948 9.71293L24.4919 20.6849H23.1556L24.9278 5.3519C25.599 5.34168 26.1404 4.80697 26.1404 4.1472C26.1404 3.48058 25.5889 2.94044 24.9083 2.94044C24.2277 2.94044 23.6762 3.48058 23.6762 4.1472C23.6762 4.72476 24.0913 5.20611 24.6445 5.3247L19.9278 20.5829H18.6089L16.522 2.96964C17.2596 2.86398 17.828 2.24766 17.828 1.49574C17.828 0.669651 17.1443 0 16.3009 0C15.4575 0 14.7738 0.669632 14.7738 1.49574C14.7738 2.25647 15.3558 2.87751 16.1062 2.97212L14.2705 20.5829H12.9517L8.08216 5.27611C8.55311 5.10643 8.89091 4.66724 8.89091 4.1472C8.89091 3.48058 8.33935 2.94044 7.65881 2.94044C6.97812 2.94044 6.42664 3.48058 6.42664 4.1472C6.42664 4.81382 6.97812 5.35396 7.65881 5.35396C7.74596 5.35396 7.83058 5.34447 7.9128 5.32774L9.61973 20.8889H8.26615L1.54232 9.69348C1.90185 9.52288 2.15177 9.16524 2.15177 8.74745C2.15177 8.16553 1.67003 7.69363 1.07589 7.69363C0.481626 7.69363 0 8.16553 0 8.74745C0 9.32948 0.481626 9.80126 1.07589 9.80126C1.13138 9.80126 1.18415 9.79345 1.23722 9.78529L7.64139 26.5998H25.5504L30.7641 9.78559C30.8169 9.79345 30.8693 9.80124 30.9241 9.80124C31.5183 9.80124 32 9.32946 32 8.74743C32 8.16551 31.5183 7.69361 30.9241 7.69361H30.9241Z" fill="#5762D5"/>
</g>
<defs>
<clipPath id="clip0_31940_361012">
<rect width="32" height="32" fill="white"/>
</clipPath>
</defs>
</svg>
